<?xml version="1.0" encoding="UTF-8" standalone="no"?>
<!DOCTYPE svg PUBLIC "-//W3C//DTD SVG 1.1//EN" "http://www.w3.org/Graphics/SVG/1.1/DTD/svg11.dtd">
<svg width="100%" height="100%" viewBox="0 0 646 646" version="1.1" xmlns="http://www.w3.org/2000/svg" xmlns:xlink="http://www.w3.org/1999/xlink" xml:space="preserve" xmlns:serif="http://www.serif.com/" style="fill-rule:evenodd;clip-rule:evenodd;stroke-linejoin:round;stroke-miterlimit:2;">
    <g id="Layer2">
    </g>
    <g id="Layer3">
    </g>
    <g id="Layer4">
    </g>
    <g id="Artboard1" transform="matrix(0.266512,0,0,0.886928,-131.747,-220.507)">
        <rect x="494.34" y="248.618" width="2423.28" height="728.169" style="fill:none;"/>
        <g id="Layer1" transform="matrix(3.75218,0,0,1.12749,499.768,147.605)">
            <g transform="matrix(1.61142,0,0,1.15338,-1957.05,-123.353)">
                <path d="M1412.97,227.247C1412.97,227.247 1292.83,446.141 1292.83,539.953C1292.83,632.592 1346.67,707.803 1412.97,707.803C1479.28,707.803 1533.11,632.592 1533.11,539.953C1533.11,446.141 1412.97,227.247 1412.97,227.247Z" style="fill:rgb(255,0,0);"/>
            </g>
            <g transform="matrix(0.554786,0.553899,-0.569728,0.570641,485.548,-104.967)">
                <path d="M541.889,598.224C541.889,555.954 506.59,521.636 463.112,521.636L295.971,521.636C252.493,521.636 217.195,555.954 217.195,598.224L217.195,751.4C217.195,793.67 252.493,827.988 295.971,827.988L463.112,827.988C506.59,827.988 541.889,793.67 541.889,751.4L541.889,598.224Z" style="fill:white;"/>
            </g>
        </g>
        <g transform="matrix(2.33697,0.70734,-2.42747,0.724162,1748.77,277.594)">
            <rect x="73.91" y="229.05" width="82.54" height="26.434" style="fill:white;"/>
        </g>
        <g transform="matrix(15.6341,0,0,4.69786,984.424,486.066)">
            <path d="M89.421,42.372L49.627,2.581C47.337,0.289 43.621,0.289 41.328,2.581L33.065,10.845L43.546,21.327C45.983,20.504 48.776,21.056 50.717,22.997C52.669,24.951 53.217,27.768 52.374,30.213L62.476,40.315C64.92,39.473 67.74,40.017 69.691,41.972C72.42,44.7 72.42,49.12 69.691,51.848C66.962,54.578 62.543,54.578 59.813,51.848C57.761,49.795 57.253,46.781 58.293,44.253L48.871,34.831L48.87,59.624C49.536,59.953 50.163,60.393 50.717,60.945C53.445,63.672 53.445,68.091 50.717,70.823C47.989,73.55 43.567,73.55 40.841,70.823C38.113,68.091 38.113,63.672 40.841,60.945C41.516,60.271 42.295,59.762 43.128,59.421L43.128,34.398C42.295,34.058 41.517,33.552 40.841,32.874C38.775,30.809 38.277,27.776 39.337,25.239L29.004,14.904L1.719,42.188C-0.572,44.482 -0.572,48.199 1.719,50.491L41.513,90.282C43.804,92.573 47.52,92.573 49.814,90.282L89.421,50.675C91.713,48.382 91.713,44.664 89.421,42.372Z" style="fill:rgb(240,81,51);fill-rule:nonzero;"/>
        </g>
        <g transform="matrix(1.21057,0,0,0.260364,-8.76014,653.164)">
            <path d="M1412.97,227.247C1412.97,227.247 1292.83,446.141 1292.83,539.953C1292.83,632.592 1346.67,707.803 1412.97,707.803C1479.28,707.803 1533.11,632.592 1533.11,539.953C1533.11,446.141 1412.97,227.247 1412.97,227.247Z" style="fill:white;"/>
        </g>
    </g>
</svg>
